<svg width="14" height="14" viewBox="0 0 14 14" fill="none" xmlns="http://www.w3.org/2000/svg">
<path d="M7 0.666016C7.36819 0.666016 7.66699 0.964818 7.66699 1.33301C7.66699 1.7012 7.36819 2 7 2H2C1.82331 2.00009 1.65424 2.07037 1.5293 2.19531C1.40435 2.32026 1.33407 2.48932 1.33398 2.66602V12C1.33407 12.1767 1.40435 12.3458 1.5293 12.4707C1.65424 12.5957 1.82331 12.6659 2 12.666H2.3916L8.25293 6.80371C8.62796 6.42893 9.13679 6.21875 9.66699 6.21875C10.1972 6.21878 10.706 6.42984 11.0811 6.80469L12 7.72363V7C12 6.63181 12.2988 6.33301 12.667 6.33301C13.0352 6.33301 13.334 6.63181 13.334 7V12C13.3339 12.5303 13.123 13.0391 12.748 13.4141C12.3731 13.7891 11.8643 13.9999 11.334 14H2C1.46968 13.9999 0.960933 13.7891 0.585938 13.4141C0.210942 13.0391 8.61452e-05 12.5303 0 12V2.66602C8.62557e-05 2.1357 0.210941 1.62695 0.585938 1.25195C0.960934 0.876957 1.46968 0.666102 2 0.666016H7ZM9.66699 7.55176C9.49022 7.55176 9.32033 7.62209 9.19531 7.74707L4.27734 12.666H11.334C11.5107 12.6659 11.6797 12.5957 11.8047 12.4707C11.9296 12.3458 11.9999 12.1767 12 12V9.6084L10.1387 7.74707C10.0137 7.62211 9.84373 7.55178 9.66699 7.55176ZM4.66699 3.33301C5.77156 3.33301 6.66699 4.22844 6.66699 5.33301C6.66699 6.43758 5.77156 7.33301 4.66699 7.33301C3.56242 7.33301 2.66699 6.43758 2.66699 5.33301C2.66699 4.22844 3.56242 3.33301 4.66699 3.33301ZM4.66699 4.66602C4.2988 4.66602 4 4.96482 4 5.33301C4 5.7012 4.2988 6 4.66699 6C5.03518 6 5.33398 5.7012 5.33398 5.33301C5.33398 4.96482 5.03518 4.66602 4.66699 4.66602ZM11.334 0C11.7019 0.000175723 11.9998 0.298084 12 0.666016V2H13.334C13.7019 2.00018 13.9998 2.29808 14 2.66602C14 3.0341 13.702 3.33283 13.334 3.33301H12V4.66602C12 5.0341 11.702 5.33283 11.334 5.33301C10.9658 5.33301 10.667 5.03421 10.667 4.66602V3.33301H9.33398C8.96579 3.33301 8.66699 3.03421 8.66699 2.66602C8.66717 2.29798 8.9659 2 9.33398 2H10.667V0.666016C10.6672 0.297975 10.9659 0 11.334 0Z" fill="black"/>
</svg>
